Coordinates
version=1
nRows=8
nColumns=34
inDegrees=yes

Units are S.I. units (second, meters, Newtons, ...)
If the header above contains a line with 'inDegrees', this indicates whether rotational values are in degrees (yes) or radians (no).

endheader
time	pelvis_tilt	pelvis_list	pelvis_rotation	pelvis_tx	pelvis_ty	pelvis_tz	hip_flexion_r	hip_adduction_r	hip_rotation_r	knee_angle_r	ankle_angle_r	subtalar_angle_r	mtp_angle_r	hip_flexion_l	hip_adduction_l	hip_rotation_l	knee_angle_l	ankle_angle_l	subtalar_angle_l	mtp_angle_l	lumbar_extension	lumbar_bending	lumbar_rotation	arm_flex_r	arm_add_r	arm_rot_r	elbow_flex_r	pro_sup_r	arm_flex_l	arm_add_l	arm_rot_l	elbow_flex_l	pro_sup_l
      8.40000000	     -2.54948192	     -1.70538498	      5.86842739	     -0.32278906	      1.24837891	     -0.08201694	    -17.15950710	      6.83820487	     -4.51489549	      3.00247314	     27.15392440	     13.82010464	      0.00000000	     25.50713317	     -3.18565919	     -6.27686286	      9.21371184	      0.76416873	      3.29854454	      0.00000000	     -8.39896057	      3.87445713	      8.75218180	      8.46057943	    -14.76411594	     24.47271571	     35.66154742	     70.96785465	     -8.39914893	     -6.39421117	     26.66271126	     13.18515643	     44.45783219
      8.41666670	     -2.72805746	     -1.28130363	      5.49446564	     -0.30472966	      1.24695614	     -0.08587027	    -17.87705783	      5.93441109	     -4.61483208	      3.62229367	     27.36995884	     13.59880139	      0.00000000	     25.32293905	     -2.43367446	     -7.19385173	      6.90364762	     -0.82345099	      4.08724905	      0.00000000	     -7.76714130	      3.16205820	      8.94697274	      8.38829583	    -14.56667786	     24.02564071	     36.13590714	     71.18317693	    -10.13322003	     -5.79508436	     26.64149844	     12.61834483	     44.31735289
      8.43333330	     -2.72668207	     -0.60684436	      4.98620493	     -0.28669424	      1.24385595	     -0.08885631	    -18.54027969	      4.72387849	     -4.90475045	      4.71513135	     27.58309284	     13.41721950	      0.00000000	     24.73950166	     -1.51156681	     -8.93231278	      5.31759329	     -1.09268789	      6.16425680	      0.00000000	     -7.87067224	      2.00545293	      9.31848441	      8.30061103	    -14.04378948	     22.24745371	     36.53873760	     71.83388864	    -10.93874582	     -5.31881620	     26.31312709	     11.48138242	     43.82763127
      8.45000000	     -3.00904620	      0.15710336	      4.59500554	     -0.26780274	      1.23960475	     -0.09272479	    -18.84824722	      3.46051097	     -5.53748165	      5.95851318	     27.67260766	     12.98307001	      0.00000000	     24.51564613	     -0.35131520	     -9.50606607	      4.74514936	     -1.17116279	      6.04258665	      0.00000000	     -7.51593378	      0.88462491	      9.42954071	      8.36842680	    -13.62755954	     21.82028779	     36.78798298	     71.98477551	    -11.75941362	     -5.10741391	     26.35797597	     11.07178860	     43.75092995
      8.46666670	     -2.95519964	      1.23876315	      4.29464550	     -0.24517451	      1.23720554	     -0.09869114	    -19.59580354	      1.78656902	     -6.79875305	      7.31397870	     27.89530527	     13.83594711	      0.00000000	     23.65588855	      1.12311260	    -10.28126428	      4.61897513	     -1.52703517	      6.40430612	      0.00000000	     -7.53074940	     -0.67014134	      9.53650413	      8.11556335	    -12.76204419	     19.40169635	     36.38783267	     72.58103863	    -12.17736633	     -4.80193682	     26.62776041	     10.00931717	     43.45254581
      8.48333330	     -3.26725984	      2.36355086	      4.09555728	     -0.22317940	      1.23457589	     -0.10411401	    -19.99531773	      0.01421389	     -7.36274675	      8.54452826	     27.37239738	     13.60636984	      0.00000000	     23.28584022	      2.62809896	    -10.55046106	      5.35034872	     -1.20539539	      5.78765494	      0.00000000	     -6.98102153	     -2.21320488	      9.55372399	      7.66586570	    -12.29086466	     18.97611833	     36.41117576	     72.76298727	    -12.72850195	     -4.73788233	     26.78728092	      9.69311526	     43.40380285
      8.50000000	     -3.44620426	      3.55426985	      4.03649075	     -0.20037356	      1.23182796	     -0.10982060	    -20.60241874	     -1.95327627	     -7.99932116	      9.56771986	     26.34835185	     13.39271537	      0.00000000	     22.60088578	      4.19629322	    -10.66865965	      6.18022363	     -1.18891279	      5.00517381	      0.00000000	     -6.29548300	     -3.61531679	      9.57676785	      7.03913151	    -11.77248367	     18.32766218	     36.01950008	     72.91379179	    -13.23625252	     -4.62161728	     27.02358071	      9.26623407	     43.36678872
      8.51666670	     -3.55211217	      4.70732398	      4.16839272	     -0.17703513	      1.22900335	     -0.11534417	    -21.24591230	     -3.83081453	     -8.39402714	     10.61557538	     24.43388735	     12.98298754	      0.00000000	     21.85097788	      5.75834138	    -10.04587416	      7.25379338	     -1.54927919	      3.02690854	      0.00000000	     -5.50254154	     -4.77462020	      9.63969132	      6.33477966	    -10.78205138	     15.35509703	     34.53520516	     73.48658408	    -13.35325230	     -4.40399738	     28.22099087	      8.27814737	     43.33632519
